# xmcd
#
# Track frame offsets: 
#        213
#        12670
#        27675
#        40211
#        51424
#        65523
#        80418
#        94244
#        104622
#        118593
#        128833
#        142052
#        153520
#        167530
#        181215
#        193782
#        212217
#        223158
#        240363
#        255609
#        267528
#        278863
#        292080
#        307338
#        324984
#        339025
#
# Disc length: 4691 seconds
#
# Revision: 0
# Processed by: cddbd v1.5.2PL0 Copyright (c) Steve Scherf et al.
# Submitted via: ExactAudioCopy v0.95b4
#
DISCID=9a12511a
DTITLE=VERN GOSDIN - 40 YEARS OF THE VOICE 3D
DYEAR=2008
DGENRE=COUNTRY
TTITLE0=ALL THE WAY THROUGH
TTITLE1=ALONE
TTITLE2=DREAM OF ME
TTITLE3=FIRE IN OUR BEDROOM
TTITLE4=FRIDAY NIGHT FEELIN'
TTITLE5=HOW CAN I BELIEVE IN YOU
TTITLE6=THE OTHER SIDE OF LIFE
TTITLE7=MAYBE THEN I'LL BE OVER YOU
TTITLE8=THIS AIN'T MY FIRST MY RODEO
TTITLE9=THE WETTEST DRY COUNTY
TTITLE10=THREE OF FOUR TIMES A DAY
TTITLE11=LET'S DON'T AND SAY WE DID
TTITLE12=WAS IT JUST THE WINE
TTITLE13=DO YOU BELIEVE ME NOW
TTITLE14=WAY DOWN DEEP
TTITLE15=WHAT I THREW AWAY
TTITLE16=SET 'EM UP JOE
TTITLE17=WHERE DO WE TAKE IT FROM HERE
TTITLE18=WOULD THESE ARMS BE IN YOUR WAY
TTITLE19=WINGS OF FAITH
TTITLE20=DIXIE'S ON MY MIND
TTITLE21=STREETS OF GOLD
TTITLE22=HEARTBREAK HALL OF PAIN
TTITLE23=THAT JUST ABOUT DOES IT
TTITLE24=THE FIRST TIME EVER I SAW YOUR FACE
TTITLE25=I'M STILL CRAZY
EXTD=
EXTT0=
EXTT1=
EXTT2=
EXTT3=
EXTT4=
EXTT5=
EXTT6=
EXTT7=
EXTT8=
EXTT9=
EXTT10=
EXTT11=
EXTT12=
EXTT13=
EXTT14=
EXTT15=
EXTT16=
EXTT17=
EXTT18=
EXTT19=
EXTT20=
EXTT21=
EXTT22=
EXTT23=
EXTT24=
EXTT25=
PLAYORDER=
